<mxfile host="app.diagrams.net" modified="2021-05-05T20:44:04.135Z" agent="5.0 (Windows NT 10.0; Win64; x64) AppleWebKit/537.36 (KHTML, like Gecko) Chrome/90.0.4430.93 Safari/537.36" etag="Ek5exH09B0ZSk1aJeAUH" version="14.6.9" type="github">
  <diagram id="logugns5v0xP4piuqEd4" name="Page-1">
    <mxGraphModel dx="650" dy="879" grid="1" gridSize="10" guides="1" tooltips="1" connect="1" arrows="1" fold="1" page="1" pageScale="1" pageWidth="827" pageHeight="1169" math="0" shadow="0">
      <root>
        <mxCell id="0" />
        <mxCell id="1" parent="0" />
        <mxCell id="9naAt-GY0mcnQuVKDhqE-5" value="" style="edgeStyle=orthogonalEdgeStyle;rounded=0;orthogonalLoop=1;jettySize=auto;html=1;" edge="1" parent="1" source="9naAt-GY0mcnQuVKDhqE-3" target="9naAt-GY0mcnQuVKDhqE-4">
          <mxGeometry relative="1" as="geometry" />
        </mxCell>
        <mxCell id="9naAt-GY0mcnQuVKDhqE-3" value="Gå B" style="rounded=0;whiteSpace=wrap;html=1;fillColor=#d5e8d4;strokeColor=#82b366;" vertex="1" parent="1">
          <mxGeometry x="120" y="120" width="120" height="60" as="geometry" />
        </mxCell>
        <mxCell id="9naAt-GY0mcnQuVKDhqE-6" style="edgeStyle=orthogonalEdgeStyle;rounded=0;orthogonalLoop=1;jettySize=auto;html=1;exitX=0;exitY=0.5;exitDx=0;exitDy=0;entryX=0;entryY=0.5;entryDx=0;entryDy=0;" edge="1" parent="1" source="9naAt-GY0mcnQuVKDhqE-4" target="9naAt-GY0mcnQuVKDhqE-3">
          <mxGeometry relative="1" as="geometry" />
        </mxCell>
        <mxCell id="9naAt-GY0mcnQuVKDhqE-9" value="" style="edgeStyle=orthogonalEdgeStyle;rounded=0;orthogonalLoop=1;jettySize=auto;html=1;" edge="1" parent="1" source="9naAt-GY0mcnQuVKDhqE-4" target="9naAt-GY0mcnQuVKDhqE-8">
          <mxGeometry relative="1" as="geometry" />
        </mxCell>
        <mxCell id="9naAt-GY0mcnQuVKDhqE-4" value="Funka det?" style="rhombus;whiteSpace=wrap;html=1;fillColor=#ffe6cc;strokeColor=#d79b00;" vertex="1" parent="1">
          <mxGeometry x="140" y="230" width="80" height="80" as="geometry" />
        </mxCell>
        <mxCell id="9naAt-GY0mcnQuVKDhqE-7" value="Ja" style="text;html=1;align=center;verticalAlign=middle;resizable=0;points=[];autosize=1;strokeColor=none;" vertex="1" parent="1">
          <mxGeometry x="55" y="200" width="30" height="20" as="geometry" />
        </mxCell>
        <mxCell id="9naAt-GY0mcnQuVKDhqE-12" value="" style="edgeStyle=orthogonalEdgeStyle;rounded=0;orthogonalLoop=1;jettySize=auto;html=1;" edge="1" parent="1" source="9naAt-GY0mcnQuVKDhqE-8" target="9naAt-GY0mcnQuVKDhqE-11">
          <mxGeometry relative="1" as="geometry" />
        </mxCell>
        <mxCell id="9naAt-GY0mcnQuVKDhqE-8" value="Gå A" style="rounded=0;whiteSpace=wrap;html=1;fillColor=#d5e8d4;strokeColor=#82b366;" vertex="1" parent="1">
          <mxGeometry x="294" y="240" width="120" height="60" as="geometry" />
        </mxCell>
        <mxCell id="9naAt-GY0mcnQuVKDhqE-10" value="Nei" style="text;html=1;align=center;verticalAlign=middle;resizable=0;points=[];autosize=1;strokeColor=none;" vertex="1" parent="1">
          <mxGeometry x="235" y="270" width="30" height="20" as="geometry" />
        </mxCell>
        <mxCell id="9naAt-GY0mcnQuVKDhqE-13" style="edgeStyle=orthogonalEdgeStyle;rounded=0;orthogonalLoop=1;jettySize=auto;html=1;exitX=1;exitY=0.5;exitDx=0;exitDy=0;entryX=1;entryY=0.5;entryDx=0;entryDy=0;" edge="1" parent="1" source="9naAt-GY0mcnQuVKDhqE-11" target="9naAt-GY0mcnQuVKDhqE-8">
          <mxGeometry relative="1" as="geometry" />
        </mxCell>
        <mxCell id="9naAt-GY0mcnQuVKDhqE-15" value="" style="edgeStyle=orthogonalEdgeStyle;rounded=0;orthogonalLoop=1;jettySize=auto;html=1;" edge="1" parent="1" source="9naAt-GY0mcnQuVKDhqE-11" target="9naAt-GY0mcnQuVKDhqE-3">
          <mxGeometry relative="1" as="geometry" />
        </mxCell>
        <mxCell id="9naAt-GY0mcnQuVKDhqE-11" value="Funka det?" style="rhombus;whiteSpace=wrap;html=1;fillColor=#ffe6cc;strokeColor=#d79b00;" vertex="1" parent="1">
          <mxGeometry x="314" y="110" width="80" height="80" as="geometry" />
        </mxCell>
        <mxCell id="9naAt-GY0mcnQuVKDhqE-14" value="Ja" style="text;html=1;align=center;verticalAlign=middle;resizable=0;points=[];autosize=1;strokeColor=none;" vertex="1" parent="1">
          <mxGeometry x="440" y="200" width="30" height="20" as="geometry" />
        </mxCell>
        <mxCell id="9naAt-GY0mcnQuVKDhqE-16" value="Nei" style="text;html=1;align=center;verticalAlign=middle;resizable=0;points=[];autosize=1;strokeColor=none;" vertex="1" parent="1">
          <mxGeometry x="265" y="130" width="30" height="20" as="geometry" />
        </mxCell>
      </root>
    </mxGraphModel>
  </diagram>
</mxfile>
